HIERARCHY
ROOT Hips
{
	OFFSET 0.000000 0.000000 0.000000 
	CHANNELS 6 Xposition Yposition Zposition Zrotation Yrotation Xrotation
	JOINT LeftUpLeg
	{
		OFFSET 1.363060 -1.794630 0.839290 
		CHANNELS 3 Zrotation Yrotation Xrotation
		JOINT LeftLeg
		{
			OFFSET 2.448110 -6.726130 0.000000 
			CHANNELS 3 Zrotation Yrotation Xrotation
			JOINT LeftFoot
			{
				OFFSET 2.562200 -7.039590 0.000000 
				CHANNELS 3 Zrotation Yrotation Xrotation
				JOINT LeftToeBase
				{
					OFFSET 0.157640 -0.433110 2.322550 
					CHANNELS 3 Zrotation Yrotation Xrotation
					End Site
					{
						OFFSET 0.000000 0.000000 0.000000 
					}
				}
			}
		}
	}
	JOINT RightUpLeg
	{
		OFFSET -1.305520 -1.794630 0.839290 
		CHANNELS 3 Zrotation Yrotation Xrotation
		JOINT RightLeg
		{
			OFFSET -2.542530 -6.985550 0.000000 
			CHANNELS 3 Zrotation Yrotation Xrotation
			JOINT RightFoot
			{
				OFFSET -2.568260 -7.056230 0.000000 
				CHANNELS 3 Zrotation Yrotation Xrotation
				JOINT RightToeBase
				{
					OFFSET -0.164730 -0.452590 2.363150 
					CHANNELS 3 Zrotation Yrotation Xrotation
					End Site
					{
						OFFSET 0.000000 0.000000 0.000000 
					}
				}
			}
		}
	}
	JOINT Spine
	{
		OFFSET 0.028270 2.035590 -0.193380 
		CHANNELS 3 Zrotation Yrotation Xrotation
		JOINT Spine1
		{
			OFFSET 0.056720 2.048850 -0.042750 
			CHANNELS 3 Zrotation Yrotation Xrotation
			JOINT Neck1
			{
				OFFSET -0.054170 1.746240 0.172020 
				CHANNELS 3 Zrotation Yrotation Xrotation
				JOINT Head
				{
					OFFSET 0.104070 1.761360 -0.123970 
					CHANNELS 3 Zrotation Yrotation Xrotation
					End Site
					{
						OFFSET 0.000000 0.000000 0.000000 
					}
				}
			}
			JOINT LeftArm
			{
				OFFSET 3.362410 1.200890 -0.311210 
				CHANNELS 3 Zrotation Yrotation Xrotation
				JOINT LeftForeArm
				{
					OFFSET 4.983000 -0.000000 -0.000000 
					CHANNELS 3 Zrotation Yrotation Xrotation
					JOINT LeftHand
					{
						OFFSET 3.483560 -0.000000 -0.000000 
						CHANNELS 3 Zrotation Yrotation Xrotation
						JOINT LeftHandIndex1
						{
							OFFSET 0.715260 -0.000000 -0.000000 
							CHANNELS 3 Zrotation Yrotation Xrotation
							End Site
							{
								OFFSET 0.000000 0.000000 0.000000 
							}
						}
					}
				}
			}
			JOINT RightArm
			{
				OFFSET -3.136600 1.374050 -0.404650 
				CHANNELS 3 Zrotation Yrotation Xrotation
				JOINT RightForeArm
				{
					OFFSET -5.241900 -0.000000 -0.000000 
					CHANNELS 3 Zrotation Yrotation Xrotation
					JOINT RightHand
					{
						OFFSET -3.444170 -0.000000 -0.000000 
						CHANNELS 3 Zrotation Yrotation Xrotation
						JOINT RightHandIndex1
						{
							OFFSET -0.622530 -0.000000 -0.000000 
							CHANNELS 3 Zrotation Yrotation Xrotation
							End Site
							{
								OFFSET 0.000000 0.000000 0.000000 
							}
						}
					}
				}
			}
		}
	}
}
MOTION
Frames: 16
Frame Time: 0.041667
36.205005 17.562554 -0.442753 69.387775 -89.124050 -61.239664 -23.577460 -8.282031 -21.993509 1.742636 12.279608 33.920448 -3.612280 12.614727 -0.188872 0.947900 -6.200400 -17.366900 30.120133 -3.659728 -6.440552 -3.547618 -11.789100 37.093124 4.000526 -18.690938 1.986424 -3.897000 12.022000 -35.809900 0.007185 4.103720 -3.934535 1.279504 2.442500 -7.091231 1.958061 -3.447919 25.453352 1.913800 -3.123600 11.714200 -97.785132 16.780758 -1.580832 126.915279 -48.026750 -95.066014 0.482753 1.779898 22.499652 -7.125000 0.000000 0.000000 91.333648 -15.634958 -29.296518 -30.016853 39.354212 -12.131676 0.809979 -3.495085 -164.811484 7.125000 0.000000 0.000000 
36.317279 17.564668 -0.471127 72.798014 -89.978113 -65.407628 -22.595395 -8.230908 -22.211710 1.981731 12.608660 35.207841 -2.701636 10.535791 -3.114953 3.098600 -10.853000 -31.785600 30.870689 -4.172733 -5.669421 -3.430230 -11.582710 36.480163 3.706468 -17.655893 2.630737 -4.239900 12.473000 -37.426300 -0.074663 4.353192 -3.811154 0.154057 2.431702 -7.034505 2.106147 -3.415780 24.979080 2.030100 -3.063700 11.472200 -98.102369 16.414661 -2.283645 123.405029 -49.435643 -92.021559 0.433651 1.810279 20.826876 -7.125000 0.000000 0.000000 91.342643 -14.115501 -28.686368 -29.738819 38.892685 -11.334238 1.315277 -3.041015 -162.973476 7.125000 0.000000 0.000000 
36.420094 17.552317 -0.492046 -86.497526 -89.342938 93.046313 -21.598822 -8.231991 -22.441766 2.428624 13.056737 36.955749 -2.651532 10.441703 -3.384074 3.163100 -10.954500 -32.126600 31.666377 -4.744543 -4.982728 -3.318716 -11.460993 36.057909 3.455806 -16.591105 2.493291 -4.352600 12.615400 -37.945300 -0.066052 4.541118 -3.707593 -0.508536 2.372759 -7.114680 2.207899 -3.475904 24.515818 2.114800 -3.056200 11.232700 -98.788368 16.365413 -2.592449 119.328040 -50.764005 -88.352949 0.416363 1.872669 19.892540 -7.125000 0.000000 0.000000 90.943061 -12.936720 -27.694429 -29.530024 38.474866 -10.597959 1.698227 -2.252963 -161.643310 7.125000 0.000000 0.000000 
36.499654 17.544416 -0.522423 -119.664020 -88.191402 126.292475 -20.573636 -8.564290 -23.880537 2.777277 13.685997 38.487753 -2.914106 11.037459 -2.952270 2.892300 -10.518600 -30.673100 32.397694 -4.897111 -4.965418 -3.240595 -11.296399 35.757884 3.263164 -15.526502 1.450675 -4.079700 12.265800 -36.678700 -0.005131 4.914536 -3.699938 -0.473768 2.655613 -7.053991 2.284747 -3.581377 24.035769 2.207200 -3.090100 10.953000 -99.466538 16.469596 -2.562819 114.899110 -51.896088 -84.238082 0.359160 1.967721 18.846282 -7.125000 0.000000 0.000000 90.198833 -12.240493 -26.323107 -29.534109 38.363636 -10.169845 1.874110 -1.051109 -161.022456 7.125000 0.000000 0.000000 
36.579881 17.513928 -0.556807 -118.717476 -87.748876 125.290660 -19.891063 -8.859065 -25.027417 3.190264 14.198783 40.083381 -3.104317 11.483869 -2.498988 2.689100 -10.174000 -29.542000 32.805049 -5.001163 -5.117264 -3.169309 -11.236147 35.571806 2.996406 -14.263434 0.374510 -3.725400 11.785700 -34.978200 0.044684 4.930510 -3.705110 -0.416241 2.643511 -7.124147 2.504294 -3.638287 23.538404 2.374200 -3.098600 10.691600 -100.240537 16.698278 -3.015189 110.587835 -52.777897 -80.147876 0.230252 2.091125 19.047539 -7.125000 0.000000 0.000000 89.531142 -11.555166 -24.749908 -29.585796 38.591253 -10.215782 1.807954 0.303436 -161.100610 7.125000 0.000000 0.000000 
36.659441 17.499017 -0.604431 -103.450301 -87.945233 109.727717 -19.518330 -9.333468 -25.752906 3.591509 14.582282 41.510993 -3.169909 11.676856 -1.689407 2.560900 -9.947800 -28.807800 32.955382 -5.591850 -5.217892 -3.084466 -11.181981 35.356603 2.675891 -12.792169 -1.213016 -3.433100 11.365100 -33.521300 0.123259 4.556588 -3.726383 -0.163220 2.405891 -7.402241 2.662651 -3.708272 23.071014 2.470400 -3.103400 10.487500 -100.867780 17.078004 -3.336234 106.085512 -53.515285 -75.769998 0.087777 2.210261 19.481553 -7.125000 0.000000 0.000000 88.880921 -10.678305 -23.343252 -29.517981 38.951639 -10.652102 1.647460 1.390661 -161.456961 7.125000 0.000000 0.000000 
36.709069 17.502800 -0.644044 -109.085352 -87.745412 114.946489 -19.120032 -9.541999 -26.501939 3.902075 14.937802 42.654192 -3.004404 11.390126 -0.756891 2.524400 -9.882100 -28.595800 33.023240 -6.249322 -4.953077 -3.061128 -11.072273 35.121872 2.544384 -12.294010 -0.897281 -3.367700 11.267800 -33.188500 0.142109 4.553953 -3.720481 -0.122549 2.413683 -7.559653 2.741108 -3.932995 22.522701 2.476400 -3.149700 10.201200 -101.018071 17.679356 -3.322003 101.645068 -54.111564 -71.400500 -0.059409 2.326930 20.379937 -7.125000 0.000000 0.000000 88.562326 -9.768286 -22.219098 -29.527304 39.476550 -11.286571 1.556337 2.053211 -162.046021 7.125000 0.000000 0.000000 
36.755247 17.511591 -0.684659 -103.096133 -87.574712 108.458770 -18.556304 -9.595120 -27.021760 4.151089 15.149707 43.487968 -2.738603 10.895947 0.380620 2.569700 -9.963500 -28.858600 33.502129 -6.594100 -4.305489 -2.931669 -10.902001 34.559753 2.592241 -12.441904 -1.036411 -3.195000 11.004200 -32.294000 0.197043 4.460943 -3.702593 -0.017028 2.340091 -7.735132 2.926461 -4.221870 21.835707 2.546900 -3.222400 9.826200 -101.046487 18.144324 -3.279743 97.150459 -54.636453 -66.958627 -0.226076 2.457588 21.968458 -7.125000 0.000000 0.000000 88.348172 -8.814102 -21.244749 -29.675050 40.031092 -11.915629 1.582489 2.382919 -162.821274 7.125000 0.000000 0.000000 
36.789964 17.518935 -0.719264 -98.235509 -87.226102 103.133773 -17.793094 -9.748599 -27.482317 4.308964 15.276979 43.980159 -2.474283 10.417827 1.581403 2.472100 -9.786900 -28.289500 34.122536 -7.128797 -3.576479 -2.760308 -10.656324 33.765290 2.623295 -12.535851 -1.012850 -3.050500 10.776300 -31.529100 0.259141 4.315027 -3.680010 0.018192 2.235210 -7.808975 3.273292 -4.366225 21.234287 2.753500 -3.252400 9.522900 -101.183667 18.289269 -3.721894 92.302898 -55.149956 -62.177852 -0.437308 2.601674 23.865299 -7.125000 0.000000 0.000000 88.200477 -7.799208 -20.162740 -29.912361 40.567561 -12.442864 1.675023 2.532481 -163.597227 7.125000 0.000000 0.000000 
36.793413 17.535181 -0.737624 -98.682451 -86.806732 103.113445 -17.107300 -10.179103 -27.619688 4.369158 15.326544 44.132599 -2.348836 10.228617 2.498153 2.315500 -9.494400 -27.354600 34.623845 -7.500267 -2.520049 -2.563612 -10.339023 32.796442 2.686703 -12.759803 -0.849821 -2.923400 10.570000 -30.842900 0.300148 4.221339 -3.632450 -0.052828 2.162633 -7.651720 3.601428 -4.441722 20.707404 2.968300 -3.260500 9.256900 -101.429463 18.266729 -4.592057 87.074287 -55.635810 -57.168049 -0.550024 2.742728 25.152759 -7.125000 0.000000 0.000000 88.207604 -6.850896 -19.193146 -30.187762 41.249180 -13.087881 1.960315 2.632319 -164.627821 7.125000 0.000000 0.000000 
36.790742 17.556100 -0.752757 -100.809708 -86.633534 104.707155 -16.734711 -10.889923 -27.449624 4.319699 15.285117 43.911074 -2.400922 10.391605 2.935873 2.312800 -9.489300 -27.338300 34.894452 -7.470663 -1.166055 -2.347913 -9.980314 31.719499 2.848000 -13.361216 -0.665672 -2.793000 10.352200 -30.124900 0.304898 4.166726 -3.577011 -0.150503 2.121408 -7.536056 3.728098 -4.589117 20.156569 3.022400 -3.280800 8.981300 -101.606391 18.218117 -5.624583 81.720206 -55.982932 -52.285460 -0.551470 2.878254 25.887279 -7.125000 0.000000 0.000000 88.442243 -6.057349 -18.120042 -30.897112 41.874806 -13.473927 1.864317 2.642468 -165.701196 7.125000 0.000000 0.000000 
36.778391 17.583028 -0.764997 -104.164110 -86.538717 107.687859 -16.454754 -11.608817 -27.302483 4.161592 15.158340 43.312144 -2.511717 10.662755 3.097635 2.315100 -9.493700 -27.352100 35.092412 -7.214989 0.174045 -2.111511 -9.589976 30.540170 3.044594 -14.090764 -0.571255 -2.731600 10.247400 -29.781500 0.295909 4.127683 -3.529037 -0.230101 2.097239 -7.367504 3.810120 -4.757849 19.632680 3.045400 -3.311100 8.725000 -101.817031 18.149213 -6.648485 76.643808 -56.100481 -47.696945 -0.585158 2.969857 26.071586 -7.125000 0.000000 0.000000 88.750301 -5.433814 -16.930746 -31.783912 42.630478 -13.950596 1.719017 2.650715 -167.288517 7.125000 0.000000 0.000000 
36.754913 17.615408 -0.772786 -108.937110 -86.500021 112.237113 -16.271812 -12.145572 -27.277012 3.920249 14.963420 42.420112 -2.610991 10.905258 3.207761 2.347000 -9.554300 -27.545000 35.196849 -6.763509 1.438291 -1.875019 -9.197932 29.366969 3.266372 -14.893789 -0.661891 -2.709000 10.208400 -29.654400 0.283968 4.128112 -3.498222 -0.213536 2.109022 -7.190967 3.977594 -4.894065 19.156197 3.146800 -3.343800 8.494400 -102.151036 18.072246 -7.619531 71.914634 -55.963079 -43.406196 -0.646400 3.017874 25.788074 -7.125000 0.000000 0.000000 89.029774 -5.027042 -15.691261 -32.751712 43.432637 -14.480544 1.538426 2.653557 -169.263725 7.125000 0.000000 0.000000 
36.721865 17.648456 -0.776013 -114.331897 -86.471022 117.499777 -16.137389 -12.562813 -27.336889 3.627505 14.720327 41.339592 -2.677681 11.076284 3.315625 2.433800 -9.716500 -28.063500 35.261212 -6.196753 2.666228 -1.642940 -8.805673 28.209614 3.503662 -15.743122 -0.826618 -2.573300 9.969900 -28.879400 0.276217 4.161082 -3.478195 -0.129092 2.145639 -7.001422 4.049727 -4.997467 18.753452 3.197100 -3.367500 8.307600 -102.564331 17.967349 -8.587179 67.567382 -55.626711 -39.625380 -0.673269 3.079057 25.373912 -7.125000 0.000000 0.000000 89.238487 -4.760112 -14.339960 -33.768879 44.260453 -15.057911 1.340549 2.648002 -171.366442 7.125000 0.000000 0.000000 
36.682252 17.676719 -0.775902 -119.752580 -86.422984 122.844888 -16.013102 -12.926039 -27.416001 3.295824 14.426878 40.095231 -2.718018 11.192954 3.459978 2.536300 -9.903500 -28.664900 35.270182 -5.819043 3.848425 -1.399433 -8.363309 26.914950 3.712575 -16.504389 -0.791529 -2.389500 9.634100 -27.799900 0.264069 4.178484 -3.476386 -0.076719 2.172684 -6.858339 4.101209 -5.038970 18.425345 3.239200 -3.367200 8.167800 -102.949193 17.858800 -9.572725 63.634681 -55.129011 -36.380972 -0.682974 3.157848 24.740558 -7.125000 0.000000 0.000000 89.413226 -4.593045 -12.780985 -34.885088 45.156165 -15.714016 1.143869 2.632628 -173.438898 7.125000 0.000000 0.000000 
36.637075 17.699752 -0.769337 -125.190675 -86.306073 128.260850 -15.865008 -13.207600 -27.562810 2.971637 14.128425 38.833185 -2.841931 11.504102 3.665631 2.571400 -9.966600 -28.868800 35.224201 -5.687893 4.869954 -1.177287 -7.920355 25.635786 3.850577 -17.029032 -0.514487 -2.315000 9.493500 -27.351500 0.246302 4.247499 -3.488466 -0.056808 2.223702 -6.758617 4.240941 -5.083656 18.123675 3.338900 -3.372900 8.042500 -103.276079 17.796403 -10.381666 60.322873 -54.552742 -33.736051 -0.655301 3.230213 24.140981 -7.125000 0.000000 0.000000 89.550586 -4.484985 -11.269387 -35.983839 46.017618 -16.382308 0.973419 2.610978 -175.362616 7.125000 0.000000 0.000000 
